<?xml version="1.0" encoding="utf-8"?>
<svg viewBox="-100 0 838 300" xmlns="http://www.w3.org/2000/svg" xmlns:xlink="http://www.w3.org/1999/xlink">
<style>
  #leftArm {
    transform-origin: 109px 236px;
    -webkit-transform-origin: 109px 236px;
    -webkit-animation: leftarm 3s linear infinite alternate;
    animation: leftarm 3s linear infinite alternate;
  }

  @-webkit-keyframes leftarm {
    50% {
      -webkit-transform: rotate(45deg) scale(1.8, 1) translate(0px, -40px) skewX(-30deg);
    }
  }

  @keyframes leftarm {
    50% {
      transform: rotate(45deg) scale(1.8, 1) translate(0px, -40px) skewX(-30deg);
    }
  }

  #rightArm {
    transform-origin: 512px 236px;
   -webkit-transform-origin: 512px 236px;
    -webkit-animation: rightarm 3s linear infinite alternate;
    animation: rightarm 3s linear infinite alternate;
  }

  @-webkit-keyframes righttarm {
    50% {
      -webkit-transform: rotate(-45deg) scale(1.8, 1) translate(0px, -30px) skewX(30deg);
    }
  }

  @keyframes rightarm {
    50% {
      transform: rotate(-45deg) scale(1.8, 1) translate(0px, -30px) skewX(30deg);
    }
  }

.hand {
  transform-origin: 50% 50%;
   -webkit-transform-origin: 50% 50%;
  -webkit-animation: shrug 3s linear infinite alternate;
  animation: shrug 3s linear infinite alternate;
}
  @-webkit-keyframes shrug {
    50% {
      -webkit-transform: translate(0, -190px);
    }
  }

  @keyframes shrug {
    50% {
      transform: translate(0, -190px);
    }
  }

  .upperarm {
  transform-origin: 50% 50%;
   -webkit-transform-origin: 50% 50%;
  -webkit-animation: shrugUpper 3s linear infinite alternate;
  animation: shrugUpper 3s linear infinite alternate;
}
  @-webkit-keyframes shrugUpper {
    50% {
      -webkit-transform: translate(0, -20px);
    }
  }

  @keyframes shrugUpper {
    50% {
      transform: translate(0, -20px);
    }
  }

  #test {
    transform-origin: 315px 136px;
     -webkit-transform-origin: 315px 136px;
    -webkit-animation: removeSmile 3s linear infinite alternate;
    animation: removeSmile 3s linear infinite alternate;
  }

  @-webkit-keyframes removeSmile {
    50% {
      -webkit-transform: rotate(10deg);
    }
  }

  @keyframes removeSmile {
    50% {
      transform: rotate(10deg);
    }
  }


</style>

  <rect id="handleft" class="hand" x="-83" y="236" width="75.353" height="17.389"/>

  <rect id="handright" class="hand" x="637" y="236" width="75.353" height="17.389"/>


  <rect id="upperarmleft" class="upperarm" x="118" y="236" width="75.353" height="17.389"/>
  <rect id="upperarmright" class="upperarm" x="435" y="236" width="75.353" height="17.389"/>

  <rect id="leftArm" x="1" y="236" width="108" height="17.389"/>

  <rect id="rightArm" x="520" y="236" width="108" height="17.389"/>

  <path id="openBracket" d="M 196.959 78.715 C 205.959 92.715 216.959 107.715 222.959 123.715 C 228.959 140.715 231.959 156.715 231.959 172.715 C 231.959 188.715 228.959 204.715 222.959 221.715 C 216.959 237.715 205.959 252.715 196.959 266.715 L 184.959 266.715 C 203.959 235.715 213.959 203.715 213.959 172.715 C 213.959 141.715 203.959 109.715 184.959 78.715 L 196.959 78.715 Z" transform="matrix(-1, 0, 0, -1, 416.918008, 345.429988)"/>
  <path id="closeBracket" d="M 407.56 263.817 C 416.56 249.817 427.56 234.817 433.56 218.817 C 439.56 201.817 442.56 185.817 442.56 169.817 C 442.56 153.817 439.56 137.817 433.56 120.817 C 427.56 104.817 416.56 89.817 407.56 75.817 L 395.56 75.817 C 414.56 106.817 424.56 138.817 424.56 169.817 C 424.56 200.817 414.56 232.817 395.56 263.817 L 407.56 263.817 Z"/>
  <g id="test">
  <rect id="eye1" x="245.17" y="84.804" width="63.76" height="17.389" transform="matrix(0.459666, 0.888092, -0.888093, 0.459666, 218.244197, -166.543538)"/>
  <rect id="eye2" x="245.17" y="84.804" width="63.76" height="17.389" transform="matrix(0.459666, 0.888092, -0.888093, 0.459665, 262.682777, -186.831556)"/>
  <path id="mouth" d="M 327.592 268.718 C 338.31 257.504 349.66 244.497 354.476 230.534 C 359.269 216.637 360.762 201.885 360.762 189.255 C 360.762 176.624 357.762 163.993 351.762 150.573 C 345.762 137.942 338.452 122.492 329.452 111.44 L 313.762 115.049 C 332.762 139.521 342.762 164.783 342.762 189.255 C 342.762 213.727 332.762 238.988 313.762 263.46 L 327.592 268.718 Z" transform="matrix(0.74752, 0.66424, -0.66424, 0.74752, 211.115093, -176.143692)"/>
</g>
</svg>
