<?xml version="1.0" encoding="utf-8"?>
<!-- Generator: Adobe Illustrator 21.0.2, SVG Export Plug-In . SVG Version: 6.00 Build 0)  -->
<svg version="1.1" id="Layer_1" xmlns:bx="https://boxy-svg.com"
	 xmlns="http://www.w3.org/2000/svg" xmlns:xlink="http://www.w3.org/1999/xlink" x="0px" y="0px" viewBox="0 0 500 400"
	 style="enable-background:new 0 0 500 400;" xml:space="preserve">
<style type="text/css">
	.st0{enable-background:new    ;}
	.st1{fill:#053C5E;}
	.st2{fill:#BFDBF7;}
	.st3{fill:#A31621;}
	.st4{fill:#A31622;}
</style>
<g class="st0">
	<path class="st1" d="M175.3,85.5v19.7H155V93.8l3.4-0.7V76.8l-3.4-0.7V64.7h20.2l8.5,15.6l8.4-15.6h20.2v11.4l-3.4,0.7v16.3
		l3.4,0.7v11.4h-20.2V85.5l-8.4,14.6L175.3,85.5z"/>
	<path class="st1" d="M245.5,105.2l-1.4-6.8h-11l-1.4,6.8h-15V91.9l3.2-0.7l7.8-26.6h21.8l7.8,26.6l3.2,0.7v13.3
		C260.5,105.2,245.5,105.2,245.5,105.2z M235.3,89.4h6.5l-3.2-15.3L235.3,89.4z"/>
	<path class="st1" d="M313.3,71.2c-0.8,0.6-1.7,1.3-2.5,2s-1.6,1.4-2.3,2.2s-1.4,1.5-2.1,2.2s-1.3,1.5-1.8,2.1
		c-0.7,0.8-1.3,1.6-1.9,2.4s-1.2,1.6-1.7,2.4c0.7,1,1.5,2,2.2,3s1.5,1.9,2.2,2.9c0.6,0.8,1.3,1.6,1.9,2.4c0.7,0.8,1.4,1.6,2,2.4
		s1.4,1.5,2,2.2s1.3,1.3,1.9,1.8v6h-20.9l-7.5-16.9v16.9h-20.2V93.8l3.4-0.7V76.8l-3.4-0.7V64.7h20.2V81l7.5-16.2h20.9L313.3,71.2z"
		/>
	<path class="st1" d="M337,95.1c1.2,0,2.3-0.1,3.4-0.3s2-0.5,2.9-0.8s1.7-0.7,2.4-1.1s1.4-0.8,1.9-1.2h4.4v13.5h-35.3V93.8l3.4-0.7
		V76.9l-3.4-0.7V64.7H352v13.5h-4.2c-0.6-0.4-1.2-0.8-2-1.2s-1.6-0.8-2.5-1.1c-0.9-0.3-1.9-0.6-2.9-0.8c-1.1-0.2-2.2-0.3-3.4-0.3V82
		l7.9-1.7v9.3L337,88V95.1z"/>
</g>
<g class="st0">
	<path class="st2" d="M74.9,157c0,1.9-0.3,3.5-0.7,5c-0.5,1.4-1.1,2.7-2,3.7c-0.8,1-1.8,1.9-2.9,2.7c-1.1,0.7-2.3,1.3-3.6,1.8
		c-1.3,0.4-2.7,0.7-4.1,0.8c-1.4,0.1-2.8,0.2-4.3,0.2c-2.6,0-4.9-0.1-6.8-0.3c-1.1-0.2-2.8-0.6-5-1.2c-1.8-0.5-3.3-1.1-4.3-1.7
		v-11.2h7.7c0.9,1.4,1.9,2.4,3,3s2.3,1,3.4,1c0.3,0,0.6,0,1-0.1s0.7-0.2,1.1-0.5c0.3-0.3,0.6-0.7,0.8-1.2c0.2-0.6,0.3-1.4,0.3-2.4
		c-1.5-0.2-2.9-0.4-4.4-0.7c-1.4-0.3-2.8-0.7-4.1-1.2s-2.5-1.1-3.7-1.9c-1.1-0.7-2.1-1.6-2.9-2.7c-0.8-1.1-1.5-2.3-1.9-3.7
		c-0.5-1.4-0.7-3.1-0.7-4.9c0-2,0.2-3.8,0.7-5.3s1.1-2.8,2-3.9c0.8-1.1,1.8-2,2.9-2.7c1.1-0.7,2.3-1.3,3.6-1.7
		c1.3-0.4,2.6-0.7,4-0.8c1.4-0.1,2.8-0.2,4.2-0.2c2,0,3.8,0.1,5.4,0.2c1.6,0.2,3.1,0.4,4.4,0.8c1.3,0.3,2.4,0.7,3.4,1.1
		c1,0.4,1.9,0.8,2.7,1.2v11h-7.7c-0.9-1.4-1.8-2.4-2.9-3s-2.2-1-3.3-1c-0.3,0-0.7,0-1,0.1c-0.4,0.1-0.8,0.3-1.1,0.6
		s-0.6,0.8-0.9,1.4c-0.2,0.6-0.4,1.4-0.4,2.4c3,0.1,5.6,0.5,7.9,1.1c2.3,0.6,4.2,1.5,5.7,2.7s2.6,2.8,3.4,4.7
		C74.5,152,74.9,154.3,74.9,157z"/>
	<path class="st2" d="M79.5,127.2h22.2c2.9,0,5.4,0.1,7.5,0.4s3.9,0.7,5.4,1.3c1.5,0.5,2.7,1.2,3.7,2c0.9,0.8,1.7,1.7,2.2,2.7
		s0.9,2.1,1.1,3.2c0.2,1.2,0.3,2.4,0.3,3.7c0,1.4-0.1,2.6-0.3,3.8s-0.7,2.3-1.3,3.3c-0.6,1-1.5,1.9-2.5,2.7c-1.1,0.8-2.5,1.5-4.2,2
		s-3.7,1-6.1,1.2c-2.4,0.3-5.2,0.4-8.4,0.4v3.7l3.3,0.7v12.3H79.5v-12.3l3.3-0.7v-17.5l-3.3-0.7V127.2z M99.1,146.2
		c1,0,1.9-0.1,2.7-0.2c0.8-0.1,1.5-0.4,2.1-0.7c0.6-0.4,1-0.9,1.3-1.6c0.3-0.7,0.5-1.6,0.5-2.8s-0.2-2.1-0.5-2.8s-0.7-1.2-1.3-1.6
		c-0.6-0.4-1.3-0.6-2.1-0.7c-0.8-0.1-1.7-0.2-2.7-0.2V146.2z"/>
	<path class="st2" d="M167.8,170.7h-16.2c-0.5-1.1-1-2.2-1.6-3.4c-0.5-1.2-1.1-2.5-1.6-3.8s-1-2.7-1.4-4c-0.4-1.4-0.8-2.8-1.1-4.3
		H145v15.5h-19.6v-12.3l3.3-0.7v-17.5l-3.3-0.7v-12.3h22.2c2.9,0,5.5,0.2,7.6,0.5s4,0.7,5.5,1.3s2.7,1.2,3.6,2
		c0.9,0.8,1.7,1.7,2.2,2.7s0.9,2.1,1,3.3c0.2,1.2,0.3,2.5,0.3,3.8c0,1.4-0.1,2.6-0.3,3.7c-0.2,1.1-0.6,2.1-1.2,3
		c-0.6,0.9-1.4,1.8-2.4,2.5s-2.3,1.5-3.8,2.2c0.3,0.8,0.8,1.6,1.5,2.6c0.6,1,1.3,2,2.1,3.1c0.7,1,1.5,2.1,2.3,3.1s1.4,1.8,2,2.5v7.2
		H167.8z M144.9,146.8c1,0,1.9,0,2.7-0.1s1.5-0.3,2.1-0.7c0.6-0.3,1-0.8,1.3-1.5s0.5-1.5,0.5-2.7c0-1.1-0.2-2-0.5-2.6
		s-0.7-1.2-1.3-1.5c-0.6-0.4-1.3-0.6-2.1-0.7c-0.8-0.1-1.7-0.2-2.7-0.2V146.8z"/>
	<path class="st2" d="M172.3,127.2h22.9v12.3l-3.3,0.7v17.5l3.3,0.7v12.3h-22.9v-12.3l3.3-0.7v-17.5l-3.3-0.7V127.2z"/>
	<path class="st2" d="M213.5,149.5v8.2l3.3,0.7v12.3h-16.3v-12.3l3.3-0.7v-17.5l-3.3-0.7v-12.3H220l13.1,22.3v-9.2l-3.3-0.8v-12.3
		h16.3v12.3l-3.3,0.7v17.5l3.3,0.7v12.3h-19.6L213.5,149.5z"/>
	<path class="st2" d="M250.1,148.4c0-3.9,0.5-7.3,1.5-10s2.5-4.9,4.4-6.7c1.8-1.7,4-2.9,6.4-3.9c2.5-0.9,5.3-1.4,8.5-1.4
		c2.2,0,4.1,0.1,5.8,0.3c1.7,0.2,3.2,0.5,4.6,0.8c1.3,0.3,2.5,0.7,3.6,1.2c1,0.4,2,0.9,2.9,1.4V143h-7.7c-0.9-1.4-1.8-2.4-2.9-3
		s-2.2-1-3.3-1c-1,0-1.9,0.2-2.8,0.6c-0.9,0.4-1.7,1-2.4,1.8c-0.7,0.8-1.3,1.8-1.7,2.9c-0.4,1.1-0.6,2.4-0.6,3.9
		c0,3.3,0.7,5.7,2,7.2s3.2,2.3,5.7,2.3c0.6,0,1.2,0,1.9-0.1c0.6-0.1,1.2-0.2,1.9-0.3V154H273v-7.8h15.9v20.7
		c-1.3,0.6-2.8,1.2-4.3,1.8s-3,1-4.5,1.4s-3,0.7-4.4,0.8c-1.4,0.2-2.8,0.2-4,0.2c-2,0-3.9-0.2-5.8-0.5c-1.8-0.3-3.6-0.9-5.1-1.7
		c-1.6-0.8-3-1.9-4.4-3.1c-1.3-1.3-2.4-2.7-3.4-4.4c-0.9-1.7-1.6-3.6-2.2-5.8C250.3,153.4,250.1,151,250.1,148.4z"/>
	<path class="st2" d="M312.5,145.8l6.9-1.8v10l-6.9-1.8v5.6l3.3,0.8v12.2h-22.9v-12.3l3.3-0.7v-17.4l-3.3-0.7v-12.3h31.6v14.5h-4.3
		c-0.4-0.4-0.9-0.8-1.4-1.3c-0.5-0.4-1.1-0.8-1.7-1.2c-0.6-0.3-1.3-0.6-2.1-0.8c-0.8-0.2-1.6-0.3-2.5-0.3V145.8z"/>
	<path class="st2" d="M328,127.2h22.9v12.3l-3.3,0.7v17.5l3.3,0.7v12.3H328v-12.3l3.3-0.7v-17.5l-3.3-0.7V127.2z"/>
	<path class="st2" d="M375.8,159.8c1.2,0,2.2-0.1,3.3-0.3c1-0.2,2-0.5,2.8-0.8s1.6-0.7,2.3-1.2c0.7-0.4,1.3-0.9,1.8-1.3h4.3v14.5
		h-34.2v-12.3l3.3-0.7v-17.4l-3.3-0.7v-12.3h34.2v14.5h-4.1c-0.5-0.4-1.2-0.8-1.9-1.3c-0.7-0.4-1.5-0.8-2.4-1.2
		c-0.9-0.3-1.8-0.6-2.8-0.8s-2.1-0.3-3.3-0.3v7.7l7.7-1.8v10l-7.7-1.8L375.8,159.8L375.8,159.8z"/>
	<path class="st2" d="M413.9,159.8c0.8,0,1.6-0.1,2.3-0.3c0.7-0.2,1.4-0.5,2-0.8s1.2-0.7,1.7-1.2c0.5-0.4,0.9-0.9,1.3-1.3h4.3v14.5
		h-31.2v-12.3l3.3-0.7v-17.5l-3.3-0.7v-12.3h22.9v12.3l-3.3,0.7L413.9,159.8L413.9,159.8z"/>
	<path class="st2" d="M458.6,127.2c2.5,0.6,4.7,1.4,6.7,2.5s3.7,2.5,5,4.2c1.4,1.7,2.5,3.8,3.2,6.2s1.1,5.2,1.1,8.3
		c0,4.2-0.6,7.7-1.9,10.5s-3,5.1-5.3,6.9c-2.3,1.7-5,3-8.3,3.7c-3.2,0.8-6.8,1.1-10.7,1.1h-19.6v-12.3l3.3-0.7v-18.5l-3.3-0.7v-11.2
		H458.6z M451,157.7c1.8,0,3.2-0.2,4.2-0.7c1-0.4,1.7-1.1,2.2-1.9c0.5-0.8,0.7-1.8,0.8-2.9c0.1-1.1,0.1-2.4,0.1-3.8
		c0-1.4,0-2.7-0.1-3.8s-0.3-2.1-0.8-2.9c-0.5-0.8-1.2-1.4-2.2-1.9c-1-0.4-2.4-0.7-4.2-0.7h-2.5v18.5L451,157.7L451,157.7z"/>
</g>
<g>
	<path bx:shape="star 596.5 63.5 18.402 18.402 0.4 5 1@6c47e971" class="st3" d="M197.5,22l4.3,12.4l13.2,0.3l-10.5,8l3.8,12.6
		l-10.8-7.5l-10.8,7.5l3.8-12.6l-10.5-8l13.2-0.3L197.5,22z"/>
	<path bx:shape="star 317.501 40.402 18.402 18.402 0.4 5 1@744b22ed" class="st3" d="M317.5,22l4.3,12.4l13.2,0.3l-10.5,8l3.8,12.6
		l-10.8-7.5l-10.8,7.5l3.8-12.6l-10.5-8l13.2-0.3L317.5,22z"/>
	<path bx:shape="star 257.501 40.402 18.402 18.402 0.4 5 1@ae5ce5ce" class="st3" d="M257.5,22l4.3,12.4l13.2,0.3l-10.5,8l3.8,12.6
		l-10.8-7.5l-10.8,7.5l3.8-12.6l-10.5-8l13.2-0.3L257.5,22z"/>
</g>
<g class="st0">
	<path class="st1" d="M116.6,211.7c0-4.9,0.7-9,2.1-12.4s3.4-6.1,6.1-8.3c2.5-2.1,5.4-3.7,8.8-4.8s7.3-1.7,11.6-1.7
		c3,0,5.7,0.1,8.1,0.4c2.3,0.3,4.4,0.6,6.3,1c1.8,0.4,3.5,0.9,4.9,1.4s2.8,1.1,4,1.7v16.1h-10.6c-1.2-1.7-2.5-2.9-4-3.7
		s-3-1.2-4.5-1.2c-1.3,0-2.6,0.3-3.8,0.8s-2.3,1.3-3.3,2.2c-1,1-1.7,2.2-2.3,3.6c-0.6,1.4-0.9,3-0.9,4.9c0,4.1,0.9,7,2.8,8.9
		c1.8,1.9,4.5,2.8,7.9,2.8c0.8,0,1.7,0,2.5-0.1c0.9-0.1,1.7-0.2,2.6-0.4v-4.3h-6.8V209H170v25.7c-1.9,0.8-3.8,1.5-5.9,2.2
		s-4.1,1.3-6.2,1.8s-4.1,0.9-6.1,1.1c-2,0.2-3.8,0.3-5.5,0.3c-2.8,0-5.4-0.2-7.9-0.6s-4.9-1.1-7.1-2.1c-2.2-1-4.2-2.3-6-3.9
		c-1.8-1.6-3.3-3.4-4.6-5.5c-1.3-2.1-2.3-4.5-3-7.2S116.6,215,116.6,211.7z"/>
	<path class="st1" d="M234,239.4h-22.4c-0.7-1.3-1.4-2.8-2.2-4.3s-1.5-3.1-2.2-4.7s-1.4-3.3-2-5s-1.1-3.5-1.5-5.3h-1.2v19.3h-27
		v-15.3l4.5-0.9v-21.7l-4.5-0.9v-15.3h30.6c4.1,0,7.6,0.2,10.5,0.6s5.5,0.9,7.5,1.6c2.1,0.7,3.7,1.5,5,2.5s2.3,2.1,3,3.4
		c0.7,1.3,1.2,2.6,1.4,4.1s0.4,3.1,0.4,4.7c0,1.7-0.2,3.2-0.5,4.6s-0.9,2.6-1.7,3.8c-0.8,1.1-1.9,2.2-3.3,3.1
		c-1.4,0.9-3.1,1.8-5.3,2.7c0.4,0.9,1.1,2,2,3.3s1.9,2.5,2.9,3.8s2.1,2.6,3.1,3.8s1.9,2.3,2.7,3.1v9H234z M202.5,209.7
		c1.4,0,2.6-0.1,3.7-0.2c1.1-0.1,2.1-0.4,2.8-0.8c0.8-0.4,1.4-1,1.8-1.9s0.6-1.9,0.6-3.3c0-1.4-0.2-2.4-0.6-3.3s-1-1.4-1.8-1.9
		c-0.8-0.4-1.7-0.7-2.8-0.9c-1.1-0.1-2.4-0.2-3.7-0.2V209.7z"/>
	<path class="st1" d="M267.2,225.9c1.6,0,3.1-0.1,4.5-0.4s2.7-0.6,3.9-1c1.2-0.4,2.3-0.9,3.2-1.4c1-0.5,1.8-1.1,2.5-1.6h5.9v18h-47
		v-15.3l4.5-0.9v-21.7l-4.5-0.9v-15.3h47v18h-5.7c-0.8-0.5-1.6-1-2.6-1.6s-2.1-1-3.3-1.5c-1.2-0.4-2.5-0.8-3.9-1.1s-2.9-0.4-4.5-0.4
		v9.6l10.5-2.3v12.4l-10.5-2.3V225.9z"/>
	<path class="st1" d="M329.6,239.4l-1.9-9.1H313l-1.9,9.1h-20v-17.7l4.3-0.9l10.4-35.4h29l10.4,35.4l4.3,0.9v17.7L329.6,239.4
		L329.6,239.4z M316,218.2h8.6l-4.3-20.4L316,218.2z"/>
	<path class="st1" d="M399.5,185.4v18h-5.9c-0.4-0.5-0.9-1-1.4-1.6c-0.5-0.5-1.1-1-1.7-1.5s-1.3-0.8-2.1-1.1
		c-0.8-0.3-1.6-0.4-2.4-0.4v24.4l4.5,0.9v15.3H359v-15.3l4.5-0.9v-24.4c-0.9,0-1.7,0.1-2.4,0.4c-0.8,0.3-1.4,0.6-2.1,1.1
		s-1.2,0.9-1.7,1.5c-0.5,0.5-1,1.1-1.4,1.6H350v-18H399.5z"/>
</g>
<g class="st0">
	<path class="st4" d="M152.6,313.8l-1.9-9.1H136l-1.9,9.1h-20v-17.7l4.3-0.9l10.4-35.4h29l10.4,35.4l4.3,0.9v17.7H152.6z
		 M139.1,292.7h8.6l-4.3-20.4L139.1,292.7z"/>
	<path class="st4" d="M176.2,286.2c0-4.9,0.7-9,2.1-12.4c1.4-3.4,3.4-6.1,6.1-8.3c2.5-2.1,5.4-3.7,8.8-4.8s7.3-1.7,11.6-1.7
		c3,0,5.7,0.1,8.1,0.4c2.3,0.3,4.4,0.6,6.3,1c1.8,0.4,3.5,0.9,4.9,1.4s2.8,1.1,4,1.7v16.1h-10.6c-1.2-1.7-2.5-2.9-4-3.7
		c-1.5-0.8-3-1.2-4.5-1.2c-1.3,0-2.6,0.3-3.8,0.8s-2.3,1.3-3.3,2.2c-1,1-1.7,2.2-2.3,3.6s-0.9,3-0.9,4.9c0,4.1,0.9,7,2.8,8.9
		c1.8,1.9,4.5,2.8,7.9,2.8c0.8,0,1.7,0,2.5-0.1c0.9-0.1,1.7-0.2,2.6-0.4v-4.3h-6.8v-9.6h21.9v25.7c-1.9,0.8-3.8,1.5-5.9,2.2
		s-4.1,1.3-6.2,1.8s-4.1,0.9-6.1,1.1s-3.8,0.3-5.5,0.3c-2.8,0-5.4-0.2-7.9-0.6s-4.9-1.1-7.1-2.1c-2.2-1-4.2-2.3-6-3.9
		s-3.3-3.4-4.6-5.5s-2.3-4.5-3-7.2S176.2,289.4,176.2,286.2z"/>
	<path class="st4" d="M272,313.8l-1.9-9.1h-14.7l-1.9,9.1h-20v-17.7l4.3-0.9l10.4-35.4h29l10.4,35.4l4.3,0.9v17.7H272z M258.4,292.7
		h8.6l-4.3-20.4L258.4,292.7z"/>
	<path class="st4" d="M297.6,259.8h31.5v15.3l-4.5,0.9v21.7l4.5,0.9v15.3h-31.5v-15.3l4.5-0.9V276l-4.5-0.9V259.8z"/>
	<path class="st4" d="M354.3,287.5v10.2l4.5,0.8v15.3h-22.5v-15.3l4.5-0.9v-21.7l-4.5-0.9v-15.3h27l18,27.7V276l-4.5-0.9v-15.3h22.5
		v15.3l-4.5,0.9v21.7l4.5,0.9v15.3h-27L354.3,287.5z"/>
</g>
<g transform="matrix(1, 0, 0, 1, -0.000027, 308.681396)">
	<path bx:shape="star 596.5 63.5 18.402 18.402 0.4 5 1@6c47e971" class="st1" d="M197.5,22l4.3,12.4l13.2,0.3l-10.5,8l3.8,12.6
		l-10.8-7.5l-10.8,7.5l3.8-12.6l-10.5-8l13.2-0.3L197.5,22z"/>
	<path bx:shape="star 317.501 40.402 18.402 18.402 0.4 5 1@744b22ed" class="st1" d="M317.5,22l4.3,12.4l13.2,0.3l-10.5,8l3.8,12.6
		l-10.8-7.5l-10.8,7.5l3.8-12.6l-10.5-8l13.2-0.3L317.5,22z"/>
	<path bx:shape="star 257.501 40.402 18.402 18.402 0.4 5 1@ae5ce5ce" class="st1" d="M257.5,22l4.3,12.4l13.2,0.3l-10.5,8l3.8,12.6
		l-10.8-7.5l-10.8,7.5l3.8-12.6l-10.5-8l13.2-0.3L257.5,22z"/>
</g>
</svg>
